<?xml version="1.0" encoding="UTF-8" standalone="no"?>
<svg
   style="font-style:normal;font-weight:normal;font-size:12px;font-family:Dialog;color-interpolation:auto;fill:#000000;fill-opacity:1;stroke:#000000;stroke-width:1;stroke-linecap:square;stroke-linejoin:miter;stroke-miterlimit:10;stroke-dasharray:none;stroke-dashoffset:0;stroke-opacity:1;color-rendering:auto;image-rendering:auto;shape-rendering:auto;text-rendering:auto"
   width="210mm"
   height="210mm"
   version="1.1"
   id="svg90"
   sodipodi:docname="flower_of_life_210r.svg"
   inkscape:version="1.4.2 (f4327f4, 2025-05-13)"
   xmlns:inkscape="http://www.inkscape.org/namespaces/inkscape"
   xmlns:sodipodi="http://sodipodi.sourceforge.net/DTD/sodipodi-0.dtd"
   xmlns="http://www.w3.org/2000/svg"
   xmlns:svg="http://www.w3.org/2000/svg">
  <sodipodi:namedview
     id="namedview90"
     pagecolor="#ffffff"
     bordercolor="#000000"
     borderopacity="0.25"
     inkscape:showpageshadow="2"
     inkscape:pageopacity="0.0"
     inkscape:pagecheckerboard="0"
     inkscape:deskcolor="#d1d1d1"
     inkscape:zoom="0.50296877"
     inkscape:cx="103.38614"
     inkscape:cy="360.85739"
     inkscape:window-width="1366"
     inkscape:window-height="697"
     inkscape:window-x="-8"
     inkscape:window-y="-8"
     inkscape:window-maximized="1"
     inkscape:current-layer="svg90"
     inkscape:document-units="mm"
     inkscape:lockguides="false" />
  <!--Generated by the Batik Graphics2D SVG Generator-->
  <defs
     id="genericDefs" />
  <g
     id="g1"
     transform="matrix(1.0001566,0,0,1.0001566,-55.418281,-55.41828)">
    <circle
       r="122.89191"
       style="display:inline;fill:none;stroke-width:1.22892;stroke-linecap:round;stroke-dasharray:none"
       cx="558.62598"
       cy="513.64386"
       id="circle10" />
    <circle
       r="122.89191"
       style="display:inline;fill:none;stroke-width:1.22892;stroke-linecap:round;stroke-dasharray:none"
       cx="665.05408"
       cy="452.19791"
       id="circle11" />
    <circle
       r="122.89191"
       style="display:inline;fill:none;stroke-width:1.22892;stroke-linecap:round;stroke-dasharray:none"
       cx="665.05408"
       cy="575.08984"
       id="circle12" />
    <circle
       r="122.89191"
       style="display:inline;fill:none;stroke-width:1.22892;stroke-linecap:round;stroke-dasharray:none"
       cx="558.62598"
       cy="636.53577"
       id="circle13" />
    <circle
       r="122.89191"
       style="display:inline;fill:none;stroke-width:1.22892;stroke-linecap:round;stroke-dasharray:none"
       cx="452.19791"
       cy="575.08984"
       id="circle14" />
    <circle
       r="122.89191"
       style="display:inline;fill:none;stroke-width:1.22892;stroke-linecap:round;stroke-dasharray:none"
       cx="452.19791"
       cy="452.19791"
       id="circle16" />
    <circle
       r="122.89191"
       style="display:inline;fill:none;stroke-width:1.22892;stroke-linecap:round;stroke-dasharray:none"
       cx="558.62598"
       cy="390.75195"
       id="circle17" />
    <circle
       r="122.89191"
       style="display:inline;fill:none;stroke-width:1.22892;stroke-linecap:round;stroke-dasharray:none"
       cx="665.05408"
       cy="329.306"
       id="circle19" />
    <circle
       r="122.89191"
       style="display:inline;fill:none;stroke-width:1.22892;stroke-linecap:round;stroke-dasharray:none"
       cx="452.19791"
       cy="329.306"
       id="circle24" />
    <circle
       r="122.89191"
       style="display:inline;fill:none;stroke-width:1.22892;stroke-linecap:round;stroke-dasharray:none"
       cx="558.62598"
       cy="267.86002"
       id="circle25" />
    <circle
       r="122.89191"
       style="display:inline;fill:none;stroke-width:1.22892;stroke-linecap:round;stroke-dasharray:none"
       cx="452.19791"
       cy="697.98175"
       id="circle29" />
    <circle
       r="122.89191"
       style="display:inline;fill:none;stroke-width:1.22892;stroke-linecap:round;stroke-dasharray:none"
       cx="345.76981"
       cy="636.53577"
       id="circle30" />
    <circle
       r="122.89191"
       style="display:inline;fill:none;stroke-width:1.22892;stroke-linecap:round;stroke-dasharray:none"
       cx="239.34169"
       cy="575.08984"
       id="circle38" />
    <circle
       r="122.89191"
       style="display:inline;fill:none;stroke-width:1.22892;stroke-linecap:round;stroke-dasharray:none"
       cx="345.76981"
       cy="390.75195"
       id="circle50" />
    <circle
       r="122.89191"
       style="display:inline;fill:none;stroke-width:1.22892;stroke-linecap:round;stroke-dasharray:none"
       cx="345.76981"
       cy="513.64386"
       id="circle53" />
    <circle
       r="122.89191"
       style="display:inline;fill:none;stroke-width:1.22892;stroke-linecap:round;stroke-dasharray:none"
       cx="239.34169"
       cy="452.19791"
       id="circle55" />
    <circle
       r="122.89191"
       style="display:inline;fill:none;stroke-width:1.22892;stroke-linecap:round;stroke-dasharray:none"
       cx="239.34169"
       cy="329.306"
       id="circle56" />
    <circle
       r="122.89191"
       style="display:inline;fill:none;stroke-width:1.22892;stroke-linecap:round;stroke-dasharray:none"
       cx="345.76981"
       cy="267.86002"
       id="circle57" />
    <circle
       r="122.89191"
       style="display:inline;fill:none;stroke-width:1.22892;stroke-linecap:round;stroke-dasharray:none"
       cx="452.19791"
       cy="206.41408"
       id="circle65" />
    <path
       style="display:inline;fill:none;stroke-width:1.22892;stroke-linecap:round;stroke-dasharray:none"
       d="M 558.62229,144.96812 C 536.6738,182.9921 496.10718,206.4153 452.1979,206.4153 c -43.90929,0 -84.47591,-23.4232 -106.42809,-61.44718"
       id="path65" />
    <path
       d="m 771.48338,390.75195 c -43.90928,0 -84.4759,-23.42197 -106.43669,-61.44596 -21.94849,-38.02276 -21.94849,-84.86916 0,-122.89192"
       style="display:inline;fill:none;stroke-width:1.22892;stroke-linecap:round;stroke-dasharray:none"
       id="path66" />
    <path
       d="m 665.04669,697.98173 c -21.94849,-38.02275 -21.94849,-84.86915 0,-122.89191 21.96079,-38.02276 62.52741,-61.44596 106.43669,-61.44596"
       style="display:inline;fill:none;stroke-width:1.22892;stroke-linecap:round;stroke-dasharray:none"
       id="path67" />
    <path
       d="m 345.76981,759.42769 c 21.95218,-38.02276 62.5188,-61.44596 106.42809,-61.44596 43.90928,0 84.4759,23.4232 106.42439,61.44596"
       style="display:inline;fill:none;stroke-width:1.22892;stroke-linecap:round;stroke-dasharray:none"
       id="path68" />
    <path
       d="m 132.91487,513.64386 c 43.90559,0 84.4759,23.4232 106.42931,61.44596 21.95218,38.02276 21.95218,84.86916 -0.001,122.89191"
       style="display:inline;fill:none;stroke-width:1.22892;stroke-linecap:round;stroke-dasharray:none"
       id="path69" />
    <path
       d="m 239.34295,206.41407 c 21.95341,38.02276 21.95341,84.86916 0.001,122.89192 -21.95341,38.02399 -62.52372,61.44596 -106.42931,61.44596"
       style="display:inline;fill:none;stroke-width:1.22892;stroke-linecap:round;stroke-dasharray:none"
       id="path70" />
    <path
       style="display:inline;fill:none;stroke-width:1.22892;stroke-linecap:round;stroke-dasharray:none"
       d="M 452.17332,83.522158 C 486.09149,142.2989 465.9495,217.44362 407.18259,251.37531 348.41199,285.30577 273.26358,265.1773 239.32083,206.41407"
       id="path73" />
    <path
       d="M 771.47109,267.8416 C 737.51606,326.5741 662.39223,346.68045 603.6376,312.75859 544.88298,278.83674 524.7287,203.72274 558.61,144.94845"
       style="display:inline;fill:none;stroke-width:1.22892;stroke-linecap:round;stroke-dasharray:none"
       id="path74" />
    <path
       d="m 771.49567,636.52349 c -43.90928,0 -84.4759,-23.4232 -106.43669,-61.45825 -21.94849,-38.02276 -21.94849,-84.86916 0,-122.89191 21.96079,-38.02276 62.52741,-61.44105 106.43669,-61.44105"
       style="display:inline;fill:none;stroke-width:1.22892;stroke-linecap:round;stroke-dasharray:none"
       id="path75" />
    <path
       d="M 452.22247,820.87365 C 418.3043,762.09445 438.44629,686.94604 497.2132,653.01558 555.98012,619.08513 631.12852,639.21482 665.07127,697.98173"
       style="display:inline;fill:none;stroke-width:1.22892;stroke-linecap:round;stroke-dasharray:none"
       id="path76" />
    <path
       d="m 132.92593,636.54807 c 33.94152,-58.76692 109.09238,-78.89661 167.86421,-44.95387 58.77306,33.93046 78.91504,109.07887 44.99073,167.85807"
       style="display:inline;fill:none;stroke-width:1.22892;stroke-linecap:round;stroke-dasharray:none"
       id="path77" />
    <path
       d="m 132.90504,267.87846 c 67.83756,0.0479 122.80466,55.05435 122.80466,122.89806 0,67.83634 -54.9671,122.84276 -122.80589,122.89192"
       style="display:inline;fill:none;stroke-width:1.22892;stroke-linecap:round;stroke-dasharray:none"
       id="path78" />
    <path
       d="m 558.61,759.45227 c -33.8813,-58.7792 -13.72702,-133.89074 45.0276,-167.8212 58.75463,-33.91817 133.87846,-13.81305 167.83349,44.917"
       style="display:inline;fill:none;stroke-width:1.22892;stroke-linecap:round;stroke-dasharray:none"
       id="path81" />
    <path
       d="m 132.90381,390.73228 c 43.90559,0 84.4759,23.41829 106.42808,61.44105 21.95341,38.02275 21.95341,84.86915 0.001,122.89191 -21.95341,38.03505 -62.52249,61.45825 -106.42808,61.45825"
       style="display:inline;fill:none;stroke-width:1.22892;stroke-linecap:round;stroke-dasharray:none"
       id="path83" />
    <path
       d="M 345.78087,144.94968 C 379.69535,203.7252 359.55091,278.865 300.784,312.79423 242.01585,346.72346 166.87113,326.59991 132.92593,267.8416"
       style="display:inline;fill:none;stroke-width:1.22892;stroke-linecap:round;stroke-dasharray:none"
       id="path84" />
    <path
       d="M 665.07127,206.41407 C 631.12852,265.1773 555.98012,285.30577 497.2132,251.37531 438.44629,217.44362 418.3043,142.2989 452.22247,83.522158"
       style="display:inline;fill:none;stroke-width:1.22892;stroke-linecap:round;stroke-dasharray:none"
       id="path85" />
    <path
       d="M 771.49567,513.66844 C 703.64704,513.63157 648.6652,458.61286 648.6652,390.77652 c 0,-67.85108 54.98184,-122.86119 122.83047,-122.89806"
       style="display:inline;fill:none;stroke-width:1.22892;stroke-linecap:round;stroke-dasharray:none"
       id="path86" />
    <path
       d="m 239.32083,697.98173 c 33.94275,-58.76691 109.09116,-78.8966 167.86176,-44.96615 58.76691,33.93046 78.9089,109.07887 44.99073,167.85807"
       style="display:inline;fill:none;stroke-width:1.22892;stroke-linecap:round;stroke-dasharray:none"
       id="path88" />
    <circle
       r="368.67575"
       style="display:inline;fill:none;stroke-width:1.22892;stroke-linecap:round;stroke-dasharray:none"
       cx="-617.71375"
       transform="rotate(-120)"
       cy="165.5159"
       id="circle88" />
    <circle
       r="377.2782"
       style="display:inline;fill:none;stroke-width:1.22892;stroke-linecap:round;stroke-dasharray:none"
       cx="-617.71375"
       transform="rotate(-120)"
       cy="165.5159"
       id="circle89" />
  </g>
  <plotdata
     application="axidraw"
     model="2"
     plob_version="n/a"
     layer="-2"
     pause_dist="-25400"
     pause_ref="-25400"
     last_x="-6.957386056161141e-14"
     last_y="-1.1191741977611969e-13"
     rand_seed="1"
     row="0" />
</svg>
